HIERARCHY
ROOT Hips
{
  OFFSET 5.80788e-005 67.184 3.4734
  CHANNELS 6 Xposition Yposition Zposition Zrotation Xrotation Yrotation
  JOINT Chest
  {
    OFFSET 0 8.7983 -4.7612
    CHANNELS 3 Zrotation Xrotation Yrotation
    JOINT Chest2
    {
      OFFSET 0 8.0291 0.4195
      CHANNELS 3 Zrotation Xrotation Yrotation
      JOINT Chest3
      {
        OFFSET 0 9.9351 -2.2114
        CHANNELS 3 Zrotation Xrotation Yrotation
        JOINT Neck
        {
          OFFSET 0 22.3885 -0.4656
          CHANNELS 3 Zrotation Xrotation Yrotation
          JOINT Head
          {
            OFFSET -0.0001 12.643 3.4389
            CHANNELS 3 Zrotation Xrotation Yrotation
            End Site
            {
              OFFSET 0.0001 17.6655 0.5274
            }
          }
        }
        JOINT LeftCollar
        {
          OFFSET 2.2603 21.606 7.4023
          CHANNELS 3 Zrotation Xrotation Yrotation
          JOINT LeftShoulder
          {
            OFFSET 13.5163 -1.1332 -5.0146
            CHANNELS 3 Zrotation Xrotation Yrotation
            JOINT LeftElbow
            {
              OFFSET -0.0995 -28.05 -0.2431
              CHANNELS 3 Zrotation Xrotation Yrotation
              JOINT LeftWrist
              {
                OFFSET 0.0679 -23.3996 -0.1402
                CHANNELS 3 Zrotation Xrotation Yrotation
                JOINT LeftFinger1
                {
                  OFFSET 0.7932 -9.069 2.5189
                  CHANNELS 3 Zrotation Xrotation Yrotation
                  JOINT LeftFinger11
                  {
                    OFFSET -0.8272 -3.3923 0.5977
                    CHANNELS 3 Zrotation Xrotation Yrotation
                    JOINT LeftFinger12
                    {
                      OFFSET -0.5649 -2.3158 0.4082
                      CHANNELS 3 Zrotation Xrotation Yrotation
                      End Site
                      {
                        OFFSET -0.4919 -1.6479 0.2673
                      }
                    }
                  }
                }
                JOINT LeftFinger2
                {
                  OFFSET 0.9159 -9.2044 0.2193
                  CHANNELS 3 Zrotation Xrotation Yrotation
                  JOINT LeftFinger21
                  {
                    OFFSET 0.0117 -4.1944 -0.0248
                    CHANNELS 3 Zrotation Xrotation Yrotation
                    JOINT LeftFinger22
                    {
                      OFFSET 0.0071 -2.3249 -0.0142
                      CHANNELS 3 Zrotation Xrotation Yrotation
                      End Site
                      {
                        OFFSET -0.1475 -2.0882 0.0028
                      }
                    }
                  }
                }
                JOINT LeftFinger3
                {
                  OFFSET 0.6113 -8.7231 -2.0637
                  CHANNELS 3 Zrotation Xrotation Yrotation
                  JOINT LeftFinger31
                  {
                    OFFSET -0.1927 -3.8059 -0.2383
                    CHANNELS 3 Zrotation Xrotation Yrotation
                    JOINT LeftFinger32
                    {
                      OFFSET -0.1091 -2.1688 -0.1362
                      CHANNELS 3 Zrotation Xrotation Yrotation
                      End Site
                      {
                        OFFSET -0.2358 -1.9176 -0.0906
                      }
                    }
                  }
                }
                JOINT LeftFinger4
                {
                  OFFSET -0.6151 -8.0947 -3.5641
                  CHANNELS 3 Zrotation Xrotation Yrotation
                  JOINT LeftFinger41
                  {
                    OFFSET -0.4882 -2.341 -0.6462
                    CHANNELS 3 Zrotation Xrotation Yrotation
                    JOINT LeftFinger42
                    {
                      OFFSET -0.3575 -1.7167 -0.4742
                      CHANNELS 3 Zrotation Xrotation Yrotation
                      End Site
                      {
                        OFFSET -0.4187 -1.5237 -0.3496
                      }
                    }
                  }
                }
                JOINT LeftFinger0
                {
                  OFFSET -1.42 -1.8761 1.4223
                  CHANNELS 3 Zrotation Xrotation Yrotation
                  JOINT LeftFinger01
                  {
                    OFFSET -1.1471 -3.4929 2.6334
                    CHANNELS 3 Zrotation Xrotation Yrotation
                    JOINT LeftFinger02
                    {
                      OFFSET -0.823 -2.3 1.6571
                      CHANNELS 3 Zrotation Xrotation Yrotation
                      End Site
                      {
                        OFFSET -0.5822 -1.6914 1.1582
                      }
                    }
                  }
                }
              }
            }
          }
        }
        JOINT RightCollar
        {
          OFFSET -2.2603 21.606 7.4023
          CHANNELS 3 Zrotation Xrotation Yrotation
          JOINT RightShoulder
          {
            OFFSET -13.5187 -1.1334 -5.0155
            CHANNELS 3 Zrotation Xrotation Yrotation
            JOINT RightElbow
            {
              OFFSET 0.0994 -28.0499 -0.2431
              CHANNELS 3 Zrotation Xrotation Yrotation
              JOINT RightWrist
              {
                OFFSET -0.0679 -23.3996 -0.1402
                CHANNELS 3 Zrotation Xrotation Yrotation
                JOINT RightFinger1
                {
                  OFFSET -0.7932 -9.0691 2.5189
                  CHANNELS 3 Zrotation Xrotation Yrotation
                  JOINT RightFinger11
                  {
                    OFFSET 0.8272 -3.3923 0.5977
                    CHANNELS 3 Zrotation Xrotation Yrotation
                    JOINT RightFinger12
                    {
                      OFFSET 0.565 -2.3158 0.4082
                      CHANNELS 3 Zrotation Xrotation Yrotation
                      End Site
                      {
                        OFFSET 0.4919 -1.6479 0.2673
                      }
                    }
                  }
                }
                JOINT RightFinger2
                {
                  OFFSET -0.916 -9.2044 0.2193
                  CHANNELS 3 Zrotation Xrotation Yrotation
                  JOINT RightFinger21
                  {
                    OFFSET -0.0117 -4.1944 -0.0248
                    CHANNELS 3 Zrotation Xrotation Yrotation
                    JOINT RightFinger22
                    {
                      OFFSET -0.0071 -2.3249 -0.0142
                      CHANNELS 3 Zrotation Xrotation Yrotation
                      End Site
                      {
                        OFFSET 0.1475 -2.0882 0.0028
                      }
                    }
                  }
                }
                JOINT RightFinger3
                {
                  OFFSET -0.6113 -8.7231 -2.0637
                  CHANNELS 3 Zrotation Xrotation Yrotation
                  JOINT RightFinger31
                  {
                    OFFSET 0.1927 -3.8059 -0.2383
                    CHANNELS 3 Zrotation Xrotation Yrotation
                    JOINT RightFinger32
                    {
                      OFFSET 0.1091 -2.1688 -0.1362
                      CHANNELS 3 Zrotation Xrotation Yrotation
                      End Site
                      {
                        OFFSET 0.2358 -1.9176 -0.0906
                      }
                    }
                  }
                }
                JOINT RightFinger4
                {
                  OFFSET 0.6151 -8.0947 -3.564
                  CHANNELS 3 Zrotation Xrotation Yrotation
                  JOINT RightFinger41
                  {
                    OFFSET 0.4882 -2.341 -0.6462
                    CHANNELS 3 Zrotation Xrotation Yrotation
                    JOINT RightFinger42
                    {
                      OFFSET 0.3574 -1.7166 -0.4742
                      CHANNELS 3 Zrotation Xrotation Yrotation
                      End Site
                      {
                        OFFSET 0.4187 -1.5237 -0.3496
                      }
                    }
                  }
                }
                JOINT RightFinger0
                {
                  OFFSET 1.4199 -1.8761 1.4221
                  CHANNELS 3 Zrotation Xrotation Yrotation
                  JOINT RightFinger01
                  {
                    OFFSET 1.1472 -3.4929 2.6336
                    CHANNELS 3 Zrotation Xrotation Yrotation
                    JOINT RightFinger02
                    {
                      OFFSET 0.8229 -2.3 1.6571
                      CHANNELS 3 Zrotation Xrotation Yrotation
                      End Site
                      {
                        OFFSET 0.5822 -1.6914 1.1582
                      }
                    }
                  }
                }
              }
            }
          }
        }
      }
    }
  }
  JOINT RightHip
  {
    OFFSET -9.412 3.9771 -0.7758
    CHANNELS 3 Zrotation Xrotation Yrotation
    JOINT RightKnee
    {
      OFFSET -0.7531 -40.938 0
      CHANNELS 3 Zrotation Xrotation Yrotation
      JOINT RightAnkle
      {
        OFFSET 0 -40.1986 0
        CHANNELS 3 Zrotation Xrotation Yrotation
        JOINT RightToe
        {
          OFFSET 0 -4.4182 9.239
          CHANNELS 3 Zrotation Xrotation Yrotation
          End Site
          {
            OFFSET 0 0 6.1981
          }
        }
      }
    }
  }
  JOINT LeftHip
  {
    OFFSET 9.4119 3.9773 -0.7758
    CHANNELS 3 Zrotation Xrotation Yrotation
    JOINT LeftKnee
    {
      OFFSET 0.7532 -40.9383 0
      CHANNELS 3 Zrotation Xrotation Yrotation
      JOINT LeftAnkle
      {
        OFFSET 0 -40.1986 0
        CHANNELS 3 Zrotation Xrotation Yrotation
        JOINT LeftToe
        {
          OFFSET 0 -4.4182 9.239
          CHANNELS 3 Zrotation Xrotation Yrotation
          End Site
          {
            OFFSET 0 0 6.1981
          }
        }
      }
    }
  }
}
MOTION
Frames:	4
Frame Time:	0.0333333
5.80788e-005 67.184 3.4734 0 0 -0 0 0 -0 0 0 -0 0 0 -0 0 0 -0 0 0 -0 0 0 -12.5014 88.1196 14.2451 10.6914 -0.00160068 -0.00239207 0.000740045 -8.4365e-005 7.00714e-005 -9.52055e-007 9.93923e-017 -1.98785e-016 -1.59028e-015 9.93923e-017 -5.96354e-016 -1.59028e-015 -9.93923e-017 -5.96354e-016 -1.59028e-015 9.93923e-017 -1.98785e-016 -1.59028e-015 -0.0128176 0.00232552 8.52707e-005 9.93923e-017 5.96354e-016 -0 9.93923e-017 -1.98785e-016 -1.59028e-015 -0.0160551 0.00299681 0.000857156 -2.48481e-016 0 3.18055e-015 9.93923e-017 -1.98785e-016 -1.59028e-015 -0.0125865 0.0031206 0.00282719 0 1.98785e-016 -0 9.93923e-017 -1.98785e-016 -1.59028e-015 9.93923e-017 -5.96354e-016 -1.59028e-015 -9.93923e-017 -5.96354e-016 -1.59028e-015 -0.865644 0.16582 7.03859 -88.0329 10.2057 -10.5567 0.0015593 -0.00248883 -0.000788628 7.87605e-005 4.10553e-005 1.24965e-005 -3.97569e-016 -7.95139e-016 3.18055e-015 -1.98785e-016 -3.97569e-016 3.18055e-015 -1.98785e-016 0 3.18055e-015 -3.97569e-016 -7.95139e-016 3.18055e-015 0.0129473 0.00231697 -8.70038e-005 9.93923e-017 -7.95139e-016 1.59028e-015 -3.97569e-016 -7.95139e-016 3.18055e-015 0.0163314 0.00303369 -0.000872333 3.97569e-016 7.95139e-016 -3.18055e-015 -3.97569e-016 -7.95139e-016 3.18055e-015 0.0145763 0.00367772 -0.00326275 9.93923e-017 -3.97569e-016 -0 -3.97569e-016 -7.95139e-016 3.18055e-015 -1.98785e-016 -3.97569e-016 3.18055e-015 -1.98785e-016 0 3.18055e-015 3.42485 1.36937 -0.0640303 0.000136572 0.69354 0.00145564 -3.42573 -2.06297 -0.0607933 -3.19502e-024 0 -1.48106e-024 -3.42498 1.36123 0.0639712 -6.769e-005 0.712612 -0.0012277 3.42582 -2.07388 0.0612819 2.55305e-023 0 -2.31416e-026 
1.59808 2.20114 3.45038 -0 0 1.85002e-009 -0.269729 -0.156127 -0.206531 -0.54003 -0.311284 -0.413803 -0.540022 -0.31128 -0.413797 4.10392 12.9655 2.07471 1.31695e-015 3.18055e-015 -3.97569e-016 -8.00254 -0.0420634 -12.2256 25.0741 3.07195 21.4729 -1.44447 -7.87021 -0.354462 -6.88346 1.2593 -0.137998 1.78906e-015 3.18055e-015 -4.77083e-015 6.62988e-006 -6.52435e-007 -1.41579e-006 -1.78906e-015 -3.18055e-015 -1.59028e-015 1.78906e-015 3.18055e-015 -4.77083e-015 -0.0127732 0.00231779 8.27158e-005 1.98785e-016 0 -0 1.78906e-015 3.18055e-015 -4.77083e-015 -0.0160098 0.00299349 0.000853046 -1.98785e-016 3.18055e-015 -3.18055e-015 1.78906e-015 3.18055e-015 -4.77083e-015 -0.012569 0.00311819 0.00282033 1.0937e-005 -2.87607e-006 -1.46982e-006 1.78906e-015 3.18055e-015 -4.77083e-015 6.62988e-006 -6.52435e-007 -1.41579e-006 -1.78906e-015 -3.18055e-015 -1.59028e-015 7.13354 -0.0288524 7.03567 -177.032 -76.3263 -166.186 1.42079 -7.87324 0.247648 6.87367 1.25161 0.312692 -1.13609e-005 8.9204e-007 5.58554e-006 -7.67177e-006 -1.12789e-005 -5.65358e-006 -5.93152e-006 9.78265e-006 1.14103e-005 -1.13609e-005 8.9204e-007 5.58554e-006 0.0129605 0.00230799 -8.39691e-005 2.15715e-006 2.94519e-007 9.39506e-007 -1.13609e-005 8.9204e-007 5.58554e-006 0.0163847 0.00304043 -0.00088194 -2.50757e-006 5.02024e-007 2.85772e-006 -1.13609e-005 8.9204e-007 5.58554e-006 0.0145873 0.00367113 -0.00326471 9.45757e-007 9.11306e-006 6.16668e-006 -1.13609e-005 8.9204e-007 5.58554e-006 -7.67177e-006 -1.12789e-005 -5.65358e-006 -5.93152e-006 9.78265e-006 1.14103e-005 -12.994 -57.7484 -18.764 -175.964 12.084 163.222 8.57991 13.5666 -19.9866 -2.38542e-015 0 2.5842e-015 12.9867 -57.7487 18.7521 175.965 12.0832 -163.228 -8.57802 13.5662 19.9814 7.95139e-016 -6.36111e-015 1.98785e-016 
1.59808 2.20114 3.45038 -0 0 1.85002e-009 -0.269729 -0.156127 -0.206531 -0.54003 -0.311284 -0.413803 -0.540022 -0.31128 -0.413797 4.15077 12.9567 2.21826 -1.35628e-006 -4.8634e-006 -1.05611e-007 -8.00254 -0.0420633 -12.2256 25.0743 3.0719 21.4729 -1.4445 -7.87015 -0.354449 -6.88347 1.25932 -0.137995 -1.59028e-015 0 -0 7.21864e-006 -9.64439e-007 -5.31571e-007 1.98785e-015 -3.18055e-015 3.18055e-015 -1.59028e-015 0 -0 -0.0128674 0.00233542 8.6858e-005 -7.95139e-016 0 -0 -1.59028e-015 0 -0 -0.0161058 0.00300871 0.000858983 -6.95624e-006 7.89717e-007 -2.45176e-007 -1.59028e-015 0 -0 -0.0125669 0.00311439 0.00282261 9.94521e-006 -1.11722e-006 -2.1232e-006 -1.59028e-015 0 -0 7.21864e-006 -9.64439e-007 -5.31571e-007 1.98785e-015 -3.18055e-015 3.18055e-015 7.13354 -0.0288524 7.03567 -177.031 -76.3264 -166.185 1.42094 -7.87336 0.247643 6.87367 1.2516 0.312715 3.18055e-015 3.18055e-015 -2.38542e-015 1.59028e-015 0 -7.95139e-016 -1.59028e-015 3.18055e-015 -2.38542e-015 3.18055e-015 3.18055e-015 -2.38542e-015 0.0129646 0.00231425 -9.09442e-005 -0 0 7.95139e-016 3.18055e-015 3.18055e-015 -2.38542e-015 0.0163787 0.00304334 -0.000879239 3.18055e-015 6.36111e-015 7.95139e-016 3.18055e-015 3.18055e-015 -2.38542e-015 0.0145917 0.00367909 -0.00326362 1.59028e-015 3.18055e-015 -1.59028e-015 3.18055e-015 3.18055e-015 -2.38542e-015 1.59028e-015 0 -7.95139e-016 -1.59028e-015 3.18055e-015 -2.38542e-015 -12.994 -57.7484 -18.764 -175.964 12.084 163.222 8.57991 13.5666 -19.9866 -2.38542e-015 0 2.5842e-015 12.9867 -57.7487 18.7521 175.965 12.0832 -163.228 -8.57798 13.5662 19.9814 -1.54541e-006 -4.96065e-006 4.32449e-007 
1.59808 2.20114 3.45038 -0 0 1.85002e-009 -0.269729 -0.156127 -0.206531 -0.54003 -0.311284 -0.413803 -0.540022 -0.31128 -0.413797 4.19765 12.9481 2.36185 -2.23732e-008 -1.59028e-015 1.04321e-007 -8.00254 -0.0420633 -12.2256 25.0743 3.0719 21.4729 -1.4445 -7.87015 -0.354449 -6.88347 1.25932 -0.137995 -1.59028e-015 0 -0 7.21864e-006 -9.64439e-007 -5.31571e-007 1.98785e-015 -3.18055e-015 3.18055e-015 -1.59028e-015 0 -0 -0.0128674 0.00233542 8.6858e-005 -7.95139e-016 0 -0 -1.59028e-015 0 -0 -0.0161058 0.00300871 0.000858983 -6.95624e-006 7.89717e-007 -2.45176e-007 -1.59028e-015 0 -0 -0.0125669 0.00311439 0.00282261 9.94521e-006 -1.11722e-006 -2.1232e-006 -1.59028e-015 0 -0 7.21864e-006 -9.64439e-007 -5.31571e-007 1.98785e-015 -3.18055e-015 3.18055e-015 7.13354 -0.0288524 7.03567 -177.031 -76.3264 -166.185 1.42094 -7.87336 0.247643 6.87367 1.2516 0.312715 3.18055e-015 3.18055e-015 -2.38542e-015 1.59028e-015 0 -7.95139e-016 -1.59028e-015 3.18055e-015 -2.38542e-015 3.18055e-015 3.18055e-015 -2.38542e-015 0.0129646 0.00231425 -9.09442e-005 -0 0 7.95139e-016 3.18055e-015 3.18055e-015 -2.38542e-015 0.0163787 0.00304334 -0.000879239 3.18055e-015 6.36111e-015 7.95139e-016 3.18055e-015 3.18055e-015 -2.38542e-015 0.0145917 0.00367909 -0.00326362 1.59028e-015 3.18055e-015 -1.59028e-015 3.18055e-015 3.18055e-015 -2.38542e-015 1.59028e-015 0 -7.95139e-016 -1.59028e-015 3.18055e-015 -2.38542e-015 -12.994 -57.7484 -18.764 -175.964 12.084 163.222 8.57991 13.5666 -19.9866 -2.38542e-015 0 2.5842e-015 12.9867 -57.7487 18.7521 175.965 12.0832 -163.228 -8.57798 13.5662 19.9814 -1.54541e-006 -4.96065e-006 4.32449e-007 
